<?xml version="1.0" encoding="iso-8859-1"?>
<!-- Generator: Adobe Illustrator 19.0.0, SVG Export Plug-In . SVG Version: 6.00 Build 0)  -->
<svg version="1.1" id="Layer_1" xmlns="http://www.w3.org/2000/svg" xmlns:xlink="http://www.w3.org/1999/xlink" x="0px" y="0px"
	 viewBox="0 0 390.271 390.271" style="enable-background:new 0 0 390.271 390.271;" xml:space="preserve">
<path style="fill:#56ACE0;" d="M368.614,338.489c0-16.808-13.576-30.319-30.319-30.319H52.105
	c-16.808,0-30.319,13.576-30.319,30.319c0,16.743,13.576,30.319,30.319,30.319h285.608
	C355.038,368.873,368.614,355.297,368.614,338.489z"/>
<g>
	<polygon style="fill:#FFC10D;" points="60.768,148.816 93.285,134.723 93.285,97.875 60.768,111.968 	"/>
	<polygon style="fill:#FFC10D;" points="231.499,53.98 269.964,53.98 255.354,21.98 216.824,21.98 	"/>
	<polygon style="fill:#FFC10D;" points="293.818,53.98 332.283,53.98 317.673,21.98 279.143,21.98 	"/>
	<polygon style="fill:#FFC10D;" points="368.614,53.98 368.614,21.98 341.527,21.98 356.137,53.98 	"/>
	<polygon style="fill:#FFC10D;" points="169.18,53.98 207.644,53.98 193.552,21.98 154.505,21.98 	"/>
	<polygon style="fill:#FFC10D;" points="93.285,279.402 78.675,285.931 93.285,285.931 	"/>
	<polygon style="fill:#FFC10D;" points="145.325,53.98 131.232,21.98 96.517,21.98 111.192,53.98 	"/>
	<polygon style="fill:#FFC10D;" points="93.285,67.491 72.663,21.98 60.768,21.98 60.768,88.113 93.285,74.02 	"/>
	<polygon style="fill:#FFC10D;" points="60.768,270.222 93.285,256.129 93.285,218.699 60.768,233.374 	"/>
	<polygon style="fill:#FFC10D;" points="60.768,209.519 93.285,195.426 93.285,158.578 60.768,172.671 	"/>
</g>
<polygon style="fill:#56ACE0;" points="214.109,209.002 214.109,285.931 114.941,285.931 114.941,135.24 152.889,135.24 "/>
<g>
	<path style="fill:#194F82;" d="M379.41,75.636c5.947,0,10.861-4.848,10.861-10.861V11.119c0-5.947-4.848-10.861-10.861-10.861
		H49.907c-5.947,0-10.861,4.848-10.861,10.861v276.428C16.808,293.495,0,313.535,0,337.972c0,28.703,23.273,52.04,52.04,52.04
		h285.608c28.703,0,52.04-23.273,52.04-52.04c0-28.703-23.273-52.04-52.04-52.04H234.731v-81.261c0-2.715-1.099-4.848-2.715-7.046
		l-66.133-80.226c-2.198-2.715-4.848-3.814-8.145-3.814h-42.796V76.218h196.719v59.087c0,5.947,4.848,10.861,10.861,10.861
		c8.145,0,14.61,6.529,14.61,14.61s-6.465,14.61-14.61,14.61s-14.61-6.529-14.61-14.61c0-5.947-4.848-10.861-10.861-10.861
		c-5.947,0-10.861,4.848-10.861,10.861c0,20.04,16.291,36.331,36.331,36.331c20.04,0,36.331-16.291,36.331-36.331
		c0-16.291-10.861-30.319-25.471-34.715V76.218h46.028V75.636z M21.721,338.489c0-16.808,13.576-30.319,30.319-30.319h285.608
		c16.808,0,30.319,13.576,30.319,30.319c0,16.743-13.576,30.319-30.319,30.319H52.105C35.297,368.873,21.721,355.297,21.721,338.489
		z M368.614,21.98v32h-12.477l-14.61-32H368.614z M332.283,53.98h-38.465l-14.61-32h38.465L332.283,53.98z M269.964,53.98h-38.465
		l-14.61-32h38.465L269.964,53.98z M207.644,53.98H169.18l-14.61-32h38.465L207.644,53.98z M93.285,97.875v36.848l-32,14.61v-36.848
		L93.285,97.875z M60.768,88.113V21.98h11.895l20.04,45.511v6.529L60.768,88.113z M93.285,158.578v36.848l-32,14.61v-36.848
		L93.285,158.578z M93.285,218.699v36.848l-32,14.61v-36.848L93.285,218.699z M93.285,279.402v6.529h-14.61L93.285,279.402z
		 M96.517,21.98h34.715l14.61,32h-34.715L96.517,21.98z M213.592,285.931h-98.651V135.24h37.947l61.22,73.697v76.929h-0.517V285.931
		z"/>
	<path style="fill:#194F82;" d="M162.133,240.42h14.093c5.947,0,10.861-4.848,10.861-10.861c0-5.947-4.848-10.861-10.861-10.861
		h-14.093c-5.947,0-10.861,4.848-10.861,10.861C151.273,235.507,156.121,240.42,162.133,240.42z"/>
	<path style="fill:#194F82;" d="M64.582,349.349h16.291c5.947,0,10.861-4.848,10.861-10.861s-4.848-10.861-10.861-10.861H64.582
		c-5.947,0-10.861,4.848-10.861,10.861S58.57,349.349,64.582,349.349z"/>
	<path style="fill:#194F82;" d="M125.802,349.349h16.291c5.947,0,10.861-4.848,10.861-10.861s-4.848-10.861-10.861-10.861h-16.291
		c-5.947,0-10.861,4.848-10.861,10.861S119.855,349.349,125.802,349.349z"/>
	<path style="fill:#194F82;" d="M187.022,349.349h16.291c5.947,0,10.861-4.848,10.861-10.861s-4.848-10.861-10.861-10.861h-16.291
		c-5.947,0-10.861,4.848-10.861,10.861S181.075,349.349,187.022,349.349z"/>
	<path style="fill:#194F82;" d="M248.307,349.349h16.291c5.947,0,10.861-4.848,10.861-10.861s-4.848-10.861-10.861-10.861h-16.291
		c-5.947,0-10.861,4.848-10.861,10.861S242.295,349.349,248.307,349.349z"/>
	<path style="fill:#194F82;" d="M309.527,349.349h16.226c5.947,0,10.861-4.848,10.861-10.861s-4.848-10.861-10.861-10.861h-16.291
		c-5.947,0-10.861,4.848-10.861,10.861S303.58,349.349,309.527,349.349z"/>
</g>
<g>
</g>
<g>
</g>
<g>
</g>
<g>
</g>
<g>
</g>
<g>
</g>
<g>
</g>
<g>
</g>
<g>
</g>
<g>
</g>
<g>
</g>
<g>
</g>
<g>
</g>
<g>
</g>
<g>
</g>
</svg>
