<?xml version="1.0" encoding="iso-8859-1"?>
<!-- Generator: Adobe Illustrator 19.0.0, SVG Export Plug-In . SVG Version: 6.00 Build 0)  -->
<svg version="1.1" id="Layer_1" xmlns="http://www.w3.org/2000/svg" xmlns:xlink="http://www.w3.org/1999/xlink" x="0px" y="0px"
	 viewBox="0 0 512 512" style="enable-background:new 0 0 512 512;" xml:space="preserve">
<rect x="89.723" y="10.199" style="fill:#FFE6B8;" width="332.555" height="491.602"/>
<g>
	<path style="fill:#BCC987;" d="M253.42,322.613L303.1,351.3c8.532,4.926,8.532,17.241,0,22.167l-49.68,28.687
		c-8.533,4.927-19.198-1.231-19.198-11.083v-57.375C234.222,323.844,244.888,317.686,253.42,322.613z"/>
	<path style="fill:#BCC987;" d="M353.431,201.23l-49.68-28.687c-8.532-4.926-8.532-17.241,0-22.167l49.68-28.687
		c8.533-4.927,19.198,1.231,19.198,11.083v57.375C372.629,199.999,361.963,206.157,353.431,201.23z"/>
</g>
<g>
	<path style="fill:#4D3D36;" d="M434.546,151.26h-2.069V10.199C432.476,4.566,427.909,0,422.277,0H89.723
		c-5.632,0-10.199,4.566-10.199,10.199v242.033h-2.069c-33.18,0-60.175,26.994-60.175,60.175s26.995,60.175,60.175,60.175h2.069
		v129.218c0,5.633,4.567,10.199,10.199,10.199h332.554c5.632,0,10.199-4.566,10.199-10.199v-230.19h2.069
		c33.18,0,60.175-26.994,60.175-60.175S467.726,151.26,434.546,151.26z M77.453,352.185c-21.933,0-39.777-17.843-39.777-39.777
		c0-21.933,17.844-39.777,39.777-39.777h2.069v79.554H77.453z M99.922,491.602V372.583h124.101v18.488
		c0,8.314,4.299,15.76,11.499,19.917c3.6,2.079,7.549,3.118,11.499,3.118c3.95,0,7.9-1.039,11.501-3.119l49.678-28.686
		c7.201-4.157,11.498-11.603,11.498-19.916c0-8.313-4.298-15.759-11.497-19.916l-49.679-28.687h-0.001
		c-7.202-4.158-15.8-4.158-22.999,0c-7.201,4.157-11.499,11.602-11.499,19.916v18.488h-124.1V20.398h312.156V151.26H382.83v-18.488
		c0-8.314-4.299-15.76-11.499-19.916c-7.201-4.157-15.798-4.158-23,0.001l-49.678,28.686c-7.201,4.157-11.498,11.603-11.498,19.916
		c0,8.313,4.298,15.759,11.497,19.915l49.679,28.687h0.001c3.6,2.08,7.549,3.118,11.5,3.118c3.949,0,7.898-1.039,11.499-3.118
		c7.201-4.157,11.499-11.603,11.499-19.917v-18.488h29.248v319.945H99.922z M248.321,331.446l49.68,28.687
		c1.074,0.62,1.298,1.567,1.298,2.251s-0.225,1.631-1.299,2.251l-49.678,28.686c-1.075,0.622-2.009,0.343-2.601,0
		c-0.593-0.342-1.299-1.011-1.299-2.251v-57.375c0-1.24,0.707-1.908,1.299-2.251c0.337-0.195,0.783-0.368,1.302-0.368
		C247.419,331.077,247.856,331.177,248.321,331.446z M362.431,132.772v57.375c0,1.24-0.707,1.909-1.299,2.251
		c-0.593,0.342-1.527,0.62-2.6,0l-49.68-28.687c-1.074-0.62-1.298-1.567-1.298-2.251s0.225-1.631,1.299-2.252l49.678-28.686
		c1.075-0.62,2.007-0.343,2.601,0C361.723,130.864,362.431,131.532,362.431,132.772z M434.546,251.212h-2.069v-79.554h2.069
		c21.933,0,39.777,17.844,39.777,39.777S456.478,251.212,434.546,251.212z"/>
	<path style="fill:#4D3D36;" d="M356.972,82.614h7.139c5.632,0,10.199-4.566,10.199-10.199s-4.567-10.199-10.199-10.199h-7.139
		c-5.632,0-10.199,4.566-10.199,10.199S351.34,82.614,356.972,82.614z"/>
	<path style="fill:#4D3D36;" d="M147.888,82.614h169.307c5.632,0,10.199-4.566,10.199-10.199s-4.567-10.199-10.199-10.199H147.888
		c-5.632,0-10.199,4.566-10.199,10.199S142.256,82.614,147.888,82.614z"/>
	<path style="fill:#4D3D36;" d="M285.577,239.681H147.888c-5.632,0-10.199,4.566-10.199,10.199c0,5.633,4.567,10.199,10.199,10.199
		h137.689c5.632,0,10.199-4.566,10.199-10.199C295.776,244.247,291.209,239.681,285.577,239.681z"/>
	<path style="fill:#4D3D36;" d="M147.888,143.809h91.793c5.632,0,10.199-4.566,10.199-10.199c0-5.633-4.567-10.199-10.199-10.199
		h-91.793c-5.632,0-10.199,4.566-10.199,10.199C137.689,139.243,142.256,143.809,147.888,143.809z"/>
	<path style="fill:#4D3D36;" d="M147.888,198.884h91.793c5.632,0,10.199-4.566,10.199-10.199c0-5.633-4.567-10.199-10.199-10.199
		h-91.793c-5.632,0-10.199,4.566-10.199,10.199C137.689,194.318,142.256,198.884,147.888,198.884z"/>
</g>
<g>
</g>
<g>
</g>
<g>
</g>
<g>
</g>
<g>
</g>
<g>
</g>
<g>
</g>
<g>
</g>
<g>
</g>
<g>
</g>
<g>
</g>
<g>
</g>
<g>
</g>
<g>
</g>
<g>
</g>
</svg>
