<?xml version="1.0" encoding="iso-8859-1"?>
<!-- Generator: Adobe Illustrator 19.0.0, SVG Export Plug-In . SVG Version: 6.00 Build 0)  -->
<svg version="1.1" id="Layer_1" xmlns="http://www.w3.org/2000/svg" xmlns:xlink="http://www.w3.org/1999/xlink" x="0px" y="0px"
	 viewBox="0 0 392.533 392.533" style="enable-background:new 0 0 392.533 392.533;" xml:space="preserve">
<g>
	<path style="fill:#FFFFFF;" d="M343.919,103.564c-9.826,2.263-19.782,4.267-29.673,6.012
		c-1.552,14.933-10.731,27.604-23.596,34.069c1.875,13.576,2.909,27.604,3.297,41.697h76.347
		C368.485,155.41,359.111,127.483,343.919,103.564z"/>
	<path style="fill:#FFFFFF;" d="M314.182,282.958c9.956,1.745,19.846,3.814,29.802,6.012c15.127-23.984,24.566-51.911,26.44-81.842
		h-76.348c-0.388,14.481-1.552,28.638-3.426,42.473C303.321,256,312.436,268.347,314.182,282.958z"/>
	<path style="fill:#FFFFFF;" d="M311.273,304.549c-6.465,15.58-21.851,26.634-39.822,26.634c-1.164,0-2.263-0.065-3.426-0.129
		c-5.689,12.218-12.154,22.82-19.071,31.547c31.935-10.15,59.863-29.22,80.873-54.303
		C323.685,306.941,317.414,305.713,311.273,304.549z"/>
	<path style="fill:#FFFFFF;" d="M247.402,323.814c-9.632-6.465-16.485-16.873-18.36-28.832c-7.24-0.323-14.545-0.646-21.786-0.711
		v74.408C221.867,363.572,235.895,347.863,247.402,323.814z"/>
	<path style="fill:#FFFFFF;" d="M248.954,29.996c7.111,8.986,13.705,19.782,19.459,32.323c1.034-0.065,2.004-0.129,3.038-0.129
		c17.648,0,32.84,10.667,39.499,25.859c6.335-1.164,12.671-2.392,19.006-3.685C308.881,59.216,280.889,40.081,248.954,29.996z"/>
	<path style="fill:#FFFFFF;" d="M207.192,185.341h65.034c-0.388-12.671-1.293-25.083-2.844-37.236
		c-17.907-0.84-32.97-12.671-38.529-28.897c-7.887,0.388-15.774,0.711-23.596,0.776v65.358H207.192z"/>
	<path style="fill:#FFFFFF;" d="M247.725,69.301c-11.507-24.372-25.729-40.275-40.598-45.511v74.408
		c7.37-0.129,14.61-0.388,21.915-0.711C231.176,85.786,238.158,75.636,247.725,69.301z"/>
	<path style="fill:#FFFFFF;" d="M271.451,309.398c11.766,0,21.269-9.503,21.269-21.269s-9.503-21.269-21.269-21.269
		s-21.269,9.503-21.269,21.269S259.685,309.398,271.451,309.398z"/>
	<path style="fill:#FFFFFF;" d="M292.719,105.18c0-11.766-9.503-21.269-21.269-21.269c-11.766,0-21.269,9.503-21.269,21.269
		s9.503,21.269,21.269,21.269C283.152,126.384,292.719,116.881,292.719,105.18z"/>
	<path style="fill:#FFFFFF;" d="M207.192,272.549c7.952,0.129,15.903,0.388,23.855,0.776c5.818-15.774,20.622-27.281,38.141-28.121
		c1.616-12.347,2.651-25.083,3.038-38.012h-65.034V272.549L207.192,272.549z"/>
	<path style="fill:#FFFFFF;" d="M62.578,84.299c16.549,3.491,33.228,6.335,49.907,8.598c7.758-25.665,18.295-47.063,30.836-62.836
		C111.58,40.145,83.653,59.281,62.578,84.299z"/>
	<path style="fill:#FFFFFF;" d="M106.99,278.497c-2.78-12.606-5.042-25.988-6.465-40.016c-16.097-3.297-28.832-15.515-32.905-31.289
		H22.174c1.875,29.996,11.313,57.859,26.44,81.842C68.008,284.574,87.467,281.083,106.99,278.497z"/>
	<path style="fill:#FFFFFF;" d="M185.341,207.192H150.82c-3.685,14.222-14.545,25.6-28.444,30.061
		c1.487,13.511,3.62,26.505,6.465,38.659c18.747-1.939,37.624-3.103,56.566-3.426v-65.293L185.341,207.192L185.341,207.192z"/>
	<path style="fill:#FFFFFF;" d="M134.594,95.354c16.873,1.616,33.745,2.651,50.747,2.844V23.725
		C165.042,30.901,146.683,57.471,134.594,95.354z"/>
	<path style="fill:#FFFFFF;" d="M143.58,362.537c-12.606-15.774-23.208-37.172-30.901-62.836
		c-16.679,2.133-33.358,5.107-49.907,8.598C83.653,333.317,111.644,352.453,143.58,362.537z"/>
	<path style="fill:#FFFFFF;" d="M109.188,217.535c11.766,0,21.269-9.503,21.269-21.269s-9.503-21.269-21.269-21.269
		s-21.269,9.503-21.269,21.269C87.919,208.032,97.422,217.535,109.188,217.535z"/>
	<path style="fill:#FFFFFF;" d="M185.341,368.743v-74.408c-16.937,0.323-33.875,1.293-50.683,2.909
		C146.747,334.998,165.107,361.568,185.341,368.743z"/>
	<path style="fill:#FFFFFF;" d="M185.341,120.048c-18.877-0.323-37.818-1.422-56.566-3.297c-2.78,12.154-4.913,25.018-6.4,38.529
		c13.899,4.461,24.76,15.838,28.444,30.061h34.521V120.048z"/>
	<path style="fill:#FFFFFF;" d="M106.99,114.101c-19.523-2.651-39.046-6.206-58.44-10.602
		c-15.127,23.984-24.566,51.846-26.44,81.842h45.382c4.073-15.774,16.937-27.992,32.97-31.289
		C102.012,140.089,104.145,126.642,106.99,114.101z"/>
</g>
<g>
	<path style="fill:#FFC10D;" d="M271.451,126.384c11.766,0,21.269-9.503,21.269-21.269s-9.503-21.269-21.269-21.269
		s-21.269,9.503-21.269,21.269S259.685,126.384,271.451,126.384z"/>
	<path style="fill:#FFC10D;" d="M271.451,309.398c11.766,0,21.269-9.503,21.269-21.269s-9.503-21.269-21.269-21.269
		s-21.269,9.503-21.269,21.269S259.685,309.398,271.451,309.398z"/>
	<path style="fill:#FFC10D;" d="M109.188,217.535c11.766,0,21.269-9.503,21.269-21.269s-9.503-21.269-21.269-21.269
		s-21.269,9.503-21.269,21.269C87.919,208.032,97.422,217.535,109.188,217.535z"/>
</g>
<path style="fill:#194F82;" d="M196.267,0C87.984,0,0,87.984,0,196.267s87.984,196.267,196.267,196.267
	s196.267-87.984,196.267-196.267S304.549,0,196.267,0z M230.788,119.208c5.624,16.226,20.687,28.057,38.529,28.897
	c1.552,12.154,2.521,24.566,2.844,37.236h-64.97v-65.358C215.014,119.919,222.901,119.596,230.788,119.208z M207.192,98.198V23.79
	c14.869,5.236,28.962,21.204,40.598,45.511c-9.568,6.335-16.485,16.485-18.618,28.186C221.737,97.81,214.497,98.069,207.192,98.198z
	 M250.182,105.18c0-11.766,9.503-21.269,21.269-21.269s21.269,9.503,21.269,21.269s-9.503,21.269-21.269,21.269
	C259.685,126.384,250.182,116.881,250.182,105.18z M272.226,207.192c-0.388,12.929-1.422,25.665-3.038,38.012
	c-17.648,0.84-32.388,12.347-38.141,28.121c-7.952-0.388-15.903-0.711-23.855-0.776v-65.358H272.226z M271.451,266.925
	c11.766,0,21.269,9.503,21.269,21.269c0,11.766-9.503,21.269-21.269,21.269s-21.269-9.503-21.269-21.269
	C250.182,276.428,259.685,266.925,271.451,266.925z M290.586,249.665c1.875-13.834,3.038-28.057,3.426-42.473h76.347
	c-1.875,29.931-11.313,57.794-26.44,81.842c-9.891-2.263-19.846-4.267-29.802-6.012C312.436,268.347,303.321,256,290.586,249.665z
	 M294.012,185.341c-0.388-14.222-1.487-28.121-3.297-41.697c12.8-6.465,22.044-19.135,23.596-34.069
	c9.891-1.745,19.782-3.814,29.673-6.012c15.127,24.048,24.566,51.911,26.44,81.842h-76.412V185.341z M310.949,87.984
	c-6.659-15.192-21.85-25.859-39.499-25.859c-1.034,0-2.004,0.065-3.038,0.129c-5.818-12.541-12.283-23.402-19.459-32.323
	c31.935,10.149,59.863,29.22,81.002,54.303C323.62,85.592,317.285,86.82,310.949,87.984z M207.192,294.335
	c7.24,0.129,14.545,0.388,21.786,0.711c1.939,11.96,8.727,22.238,18.36,28.832c-11.442,24.048-25.471,39.628-40.275,44.865v-74.408
	H207.192z M248.954,362.537c7.046-8.727,13.446-19.329,19.071-31.547c1.099,0.065,2.263,0.129,3.426,0.129
	c17.907,0,33.293-11.055,39.822-26.634c6.271,1.164,12.412,2.392,18.683,3.685C308.881,333.317,280.889,352.453,248.954,362.537z
	 M128.776,275.846c-2.844-12.154-5.042-25.083-6.465-38.659c13.899-4.461,24.76-15.838,28.444-30.061h34.521v65.293
	C166.529,272.873,147.588,273.972,128.776,275.846z M185.341,294.335v74.408c-20.234-7.176-38.659-33.875-50.683-71.564
	C151.531,295.564,168.469,294.659,185.341,294.335z M109.188,174.998c11.766,0,21.269,9.503,21.269,21.269
	c0,11.766-9.503,21.269-21.269,21.269s-21.269-9.503-21.269-21.269C87.919,184.501,97.422,174.998,109.188,174.998z M67.62,185.341
	H22.174c1.875-29.931,11.313-57.794,26.44-81.842c19.394,4.396,38.853,7.887,58.44,10.602c-2.78,12.606-4.913,25.988-6.465,39.951
	C84.428,157.414,71.693,169.632,67.62,185.341z M150.82,185.341c-3.685-14.222-14.545-25.6-28.444-30.061
	c1.487-13.511,3.62-26.505,6.4-38.529c18.877,1.939,37.689,3.038,56.566,3.297v65.293H150.82L150.82,185.341z M112.549,92.897
	c-16.679-2.133-33.358-5.042-49.907-8.598c21.01-25.018,48.937-44.154,80.743-54.238C130.909,45.77,120.307,67.168,112.549,92.897z
	 M67.62,207.192c4.073,15.774,16.937,27.992,32.905,31.289c1.487,14.093,3.685,27.41,6.465,40.016
	c-19.523,2.65-39.111,6.206-58.44,10.602c-15.127-24.048-24.566-51.911-26.44-81.907L67.62,207.192L67.62,207.192z M112.549,299.766
	c7.822,25.665,18.36,47.063,30.901,62.836c-31.871-10.15-59.798-29.285-80.873-54.303
	C79.192,304.743,95.871,301.899,112.549,299.766z M185.341,98.198c-16.937-0.323-33.875-1.228-50.747-2.844
	c12.024-37.818,30.448-64.453,50.747-71.564V98.198z"/>
<g>
	<path style="fill:#56ACE0;" d="M269.188,62.19c-0.388-0.259-0.776-0.388-1.164-0.646c0.065,0.259,0.259,0.453,0.323,0.711
		C268.671,62.255,268.994,62.255,269.188,62.19z"/>
	<path style="fill:#56ACE0;" d="M134.659,297.244c5.883,18.489,13.317,34.263,21.721,46.352c9.374,2.521,19.006,4.202,28.962,4.848
		v-54.174C168.469,294.659,151.531,295.564,134.659,297.244z"/>
	<path style="fill:#56ACE0;" d="M229.107,97.487c2.133-11.766,9.051-21.851,18.618-28.186c-3.62-7.758-7.564-14.481-11.636-20.428
		c-9.244-2.521-18.941-4.202-28.832-4.848v54.174C214.497,98.069,221.737,97.81,229.107,97.487z"/>
	<path style="fill:#56ACE0;" d="M290.78,143.644c1.875,13.576,2.909,27.604,3.297,41.697h54.432
		c-2.004-28.574-11.96-55.014-27.604-77.123c-2.263,0.388-4.396,0.84-6.659,1.228C312.824,124.509,303.58,137.18,290.78,143.644z"/>
	<path style="fill:#56ACE0;" d="M269.382,148.105c-17.907-0.84-32.97-12.671-38.529-28.897c-7.887,0.388-15.774,0.711-23.596,0.776
		v65.358h65.034C271.903,172.671,270.933,160.259,269.382,148.105z"/>
	<path style="fill:#56ACE0;" d="M87.725,303.515c10.731,10.925,23.079,20.17,36.719,27.41c-4.396-9.503-8.404-19.911-11.83-31.224
		C104.339,300.8,96.065,302.028,87.725,303.515z"/>
	<path style="fill:#56ACE0;" d="M207.192,272.549c7.952,0.129,15.903,0.388,23.855,0.776c5.818-15.774,20.622-27.281,38.141-28.121
		c1.616-12.347,2.651-25.083,3.038-38.012h-65.034V272.549L207.192,272.549z"/>
	<path style="fill:#56ACE0;" d="M247.402,323.814c-9.632-6.465-16.485-16.873-18.36-28.832c-7.24-0.323-14.545-0.646-21.786-0.711
		v54.174c9.891-0.711,19.523-2.327,28.832-4.848C240.032,337.842,243.846,331.313,247.402,323.814z"/>
	<path style="fill:#56ACE0;" d="M100.525,238.481c-16.097-3.297-28.832-15.515-32.905-31.289H44.024
		c2.004,28.574,11.96,55.014,27.604,77.123c11.766-2.263,23.596-4.202,35.362-5.818C104.21,265.891,102.012,252.509,100.525,238.481
		z"/>
	<path style="fill:#56ACE0;" d="M185.341,120.048c-18.877-0.323-37.818-1.422-56.566-3.297c-2.78,12.154-4.913,25.018-6.4,38.529
		c13.899,4.461,24.76,15.838,28.444,30.061h34.521V120.048z"/>
	<path style="fill:#56ACE0;" d="M67.62,185.341c4.073-15.774,16.937-27.992,32.97-31.289c1.487-13.964,3.62-27.41,6.465-39.952
		c-11.83-1.616-23.661-3.556-35.362-5.818c-15.58,22.174-25.535,48.549-27.604,77.059H67.62z"/>
	<path style="fill:#56ACE0;" d="M294.012,207.192c-0.388,14.481-1.551,28.638-3.426,42.473
		c12.671,6.335,21.721,18.683,23.467,33.293c2.263,0.388,4.461,0.84,6.723,1.293c15.58-22.109,25.6-48.549,27.604-77.059h-54.432v0
		H294.012z"/>
	<path style="fill:#56ACE0;" d="M156.251,49.002c-8.339,12.154-15.774,27.927-21.657,46.352c16.873,1.616,33.745,2.651,50.747,2.844
		V44.024C175.386,44.735,165.689,46.416,156.251,49.002z"/>
	<path style="fill:#56ACE0;" d="M122.311,237.317c1.487,13.511,3.62,26.505,6.465,38.659c18.747-1.939,37.624-3.103,56.566-3.426
		v-65.293H150.82C147.071,221.349,136.21,232.792,122.311,237.317z"/>
	<path style="fill:#56ACE0;" d="M124.315,61.673c-13.576,7.24-25.859,16.549-36.655,27.41c8.275,1.422,16.549,2.715,24.889,3.814
		C115.976,81.584,119.919,71.176,124.315,61.673z"/>
</g>
<g>
</g>
<g>
</g>
<g>
</g>
<g>
</g>
<g>
</g>
<g>
</g>
<g>
</g>
<g>
</g>
<g>
</g>
<g>
</g>
<g>
</g>
<g>
</g>
<g>
</g>
<g>
</g>
<g>
</g>
</svg>
